<?xml version="1.0" standalone="no"?>
 <!DOCTYPE svg PUBLIC "-//W3C//DTD SVG 1.1//EN" 
 "http://www.w3.org/Graphics/SVG/1.1/DTD/svg11.dtd"> 
<svg xmlns="http://www.w3.org/2000/svg" version="1.1" 
    width="29.7002cm" height="21.0007cm" viewBox="0 0 116930 82680 ">
<title>SVG Picture created as Single_Transistor_AMP3-Edge.Cuts.svg date 2019/06/13 01:28:07 </title>
  <desc>Picture generated by PCBNEW </desc>
<g style="fill:#000000; fill-opacity:1;stroke:#000000; stroke-opacity:1;
stroke-linecap:round; stroke-linejoin:round; "
 transform="translate(0 0) scale(1 1)">
</g>
<g style="fill:#000000; fill-opacity:0.0; 
stroke:#000000; stroke-width:-0.000393701; stroke-opacity:1; 
stroke-linecap:round; stroke-linejoin:round;">
</g>
<g style="fill:#000000; fill-opacity:0.0; 
stroke:#000000; stroke-width:39.3701; stroke-opacity:1; 
stroke-linecap:round; stroke-linejoin:round;">
</g>
<g style="fill:#000000; fill-opacity:0.0; 
stroke:#000000; stroke-width:59.0551; stroke-opacity:1; 
stroke-linecap:round; stroke-linejoin:round;">
<rect x="69685.9" y="65357.2" width="42519.7" height="12598.4" rx="0" />
</g>
<g style="fill:#000000; fill-opacity:0.0; 
stroke:#000000; stroke-width:39.3701; stroke-opacity:1; 
stroke-linecap:round; stroke-linejoin:round;">
</g>
<g style="fill:#000000; fill-opacity:0.0; 
stroke:#000000; stroke-width:59.0551; stroke-opacity:1; 
stroke-linecap:round; stroke-linejoin:round;">
<rect x="3937.01" y="3937.01" width="109056" height="74806" rx="0" />
</g>
<g style="fill:#000000; fill-opacity:0.0; 
stroke:#000000; stroke-width:39.3701; stroke-opacity:1; 
stroke-linecap:round; stroke-linejoin:round;">
</g>
<g style="fill:#000000; fill-opacity:0.0; 
stroke:#000000; stroke-width:59.0551; stroke-opacity:1; 
stroke-linecap:round; stroke-linejoin:round;">
<rect x="4724.41" y="4724.41" width="107481" height="73231.2" rx="0" />
</g>
<g style="fill:#000000; fill-opacity:0.0; 
stroke:#000000; stroke-width:39.3701; stroke-opacity:1; 
stroke-linecap:round; stroke-linejoin:round;">
</g>
<g style="fill:#000000; fill-opacity:0.0; 
stroke:#000000; stroke-width:59.0551; stroke-opacity:1; 
stroke-linecap:round; stroke-linejoin:round;">
<path d="M23622 4724
L23622 3937
" />
</g>
<g style="fill:#000000; fill-opacity:0.0; 
stroke:#000000; stroke-width:39.3701; stroke-opacity:1; 
stroke-linecap:round; stroke-linejoin:round;">
</g>
<g style="fill:#000000; fill-opacity:0.0; 
stroke:#000000; stroke-width:59.0551; stroke-opacity:1; 
stroke-linecap:round; stroke-linejoin:round;">
<path d="M43307 4724
L43307 3937
" />
</g>
<g style="fill:#000000; fill-opacity:0.0; 
stroke:#000000; stroke-width:39.3701; stroke-opacity:1; 
stroke-linecap:round; stroke-linejoin:round;">
</g>
<g style="fill:#000000; fill-opacity:0.0; 
stroke:#000000; stroke-width:59.0551; stroke-opacity:1; 
stroke-linecap:round; stroke-linejoin:round;">
<path d="M62992 4724
L62992 3937
" />
</g>
<g style="fill:#000000; fill-opacity:0.0; 
stroke:#000000; stroke-width:39.3701; stroke-opacity:1; 
stroke-linecap:round; stroke-linejoin:round;">
</g>
<g style="fill:#000000; fill-opacity:0.0; 
stroke:#000000; stroke-width:59.0551; stroke-opacity:1; 
stroke-linecap:round; stroke-linejoin:round;">
<path d="M82677 4724
L82677 3937
" />
</g>
<g style="fill:#000000; fill-opacity:0.0; 
stroke:#000000; stroke-width:39.3701; stroke-opacity:1; 
stroke-linecap:round; stroke-linejoin:round;">
</g>
<g style="fill:#000000; fill-opacity:0.0; 
stroke:#000000; stroke-width:59.0551; stroke-opacity:1; 
stroke-linecap:round; stroke-linejoin:round;">
<path d="M102362 4724
L102362 3937
" />
</g>
<g style="fill:#000000; fill-opacity:0.0; 
stroke:#000000; stroke-width:39.3701; stroke-opacity:1; 
stroke-linecap:round; stroke-linejoin:round;">
</g>
<g style="fill:#000000; fill-opacity:0.0; 
stroke:#000000; stroke-width:59.0551; stroke-opacity:1; 
stroke-linecap:round; stroke-linejoin:round;">
<path d="M14199 4562
L13906 4562
" />
<path d="M14052 4562
L14052 4050
L14004 4123
L13955 4172
L13906 4196
" />
</g>
<g style="fill:#000000; fill-opacity:0.0; 
stroke:#000000; stroke-width:39.3701; stroke-opacity:1; 
stroke-linecap:round; stroke-linejoin:round;">
</g>
<g style="fill:#000000; fill-opacity:0.0; 
stroke:#000000; stroke-width:59.0551; stroke-opacity:1; 
stroke-linecap:round; stroke-linejoin:round;">
<path d="M33591 4099
L33615 4074
L33664 4050
L33786 4050
L33835 4074
L33859 4099
L33884 4147
L33884 4196
L33859 4269
L33567 4562
L33884 4562
" />
</g>
<g style="fill:#000000; fill-opacity:0.0; 
stroke:#000000; stroke-width:39.3701; stroke-opacity:1; 
stroke-linecap:round; stroke-linejoin:round;">
</g>
<g style="fill:#000000; fill-opacity:0.0; 
stroke:#000000; stroke-width:59.0551; stroke-opacity:1; 
stroke-linecap:round; stroke-linejoin:round;">
<path d="M53252 4050
L53569 4050
L53398 4245
L53471 4245
L53520 4269
L53544 4294
L53569 4342
L53569 4464
L53544 4513
L53520 4537
L53471 4562
L53325 4562
L53276 4537
L53252 4513
" />
</g>
<g style="fill:#000000; fill-opacity:0.0; 
stroke:#000000; stroke-width:39.3701; stroke-opacity:1; 
stroke-linecap:round; stroke-linejoin:round;">
</g>
<g style="fill:#000000; fill-opacity:0.0; 
stroke:#000000; stroke-width:59.0551; stroke-opacity:1; 
stroke-linecap:round; stroke-linejoin:round;">
<path d="M73205 4221
L73205 4562
" />
<path d="M73083 4026
L72961 4391
L73278 4391
" />
</g>
<g style="fill:#000000; fill-opacity:0.0; 
stroke:#000000; stroke-width:39.3701; stroke-opacity:1; 
stroke-linecap:round; stroke-linejoin:round;">
</g>
<g style="fill:#000000; fill-opacity:0.0; 
stroke:#000000; stroke-width:59.0551; stroke-opacity:1; 
stroke-linecap:round; stroke-linejoin:round;">
<path d="M92914 4050
L92671 4050
L92646 4294
L92671 4269
L92719 4245
L92841 4245
L92890 4269
L92914 4294
L92939 4342
L92939 4464
L92914 4513
L92890 4537
L92841 4562
L92719 4562
L92671 4537
L92646 4513
" />
</g>
<g style="fill:#000000; fill-opacity:0.0; 
stroke:#000000; stroke-width:39.3701; stroke-opacity:1; 
stroke-linecap:round; stroke-linejoin:round;">
</g>
<g style="fill:#000000; fill-opacity:0.0; 
stroke:#000000; stroke-width:59.0551; stroke-opacity:1; 
stroke-linecap:round; stroke-linejoin:round;">
<path d="M112575 4050
L112477 4050
L112429 4074
L112404 4099
L112356 4172
L112331 4269
L112331 4464
L112356 4513
L112380 4537
L112429 4562
L112526 4562
L112575 4537
L112599 4513
L112624 4464
L112624 4342
L112599 4294
L112575 4269
L112526 4245
L112429 4245
L112380 4269
L112356 4294
L112331 4342
" />
</g>
<g style="fill:#000000; fill-opacity:0.0; 
stroke:#000000; stroke-width:39.3701; stroke-opacity:1; 
stroke-linecap:round; stroke-linejoin:round;">
</g>
<g style="fill:#000000; fill-opacity:0.0; 
stroke:#000000; stroke-width:59.0551; stroke-opacity:1; 
stroke-linecap:round; stroke-linejoin:round;">
<path d="M23622 77955
L23622 78742
" />
</g>
<g style="fill:#000000; fill-opacity:0.0; 
stroke:#000000; stroke-width:39.3701; stroke-opacity:1; 
stroke-linecap:round; stroke-linejoin:round;">
</g>
<g style="fill:#000000; fill-opacity:0.0; 
stroke:#000000; stroke-width:59.0551; stroke-opacity:1; 
stroke-linecap:round; stroke-linejoin:round;">
<path d="M43307 77955
L43307 78742
" />
</g>
<g style="fill:#000000; fill-opacity:0.0; 
stroke:#000000; stroke-width:39.3701; stroke-opacity:1; 
stroke-linecap:round; stroke-linejoin:round;">
</g>
<g style="fill:#000000; fill-opacity:0.0; 
stroke:#000000; stroke-width:59.0551; stroke-opacity:1; 
stroke-linecap:round; stroke-linejoin:round;">
<path d="M62992 77955
L62992 78742
" />
</g>
<g style="fill:#000000; fill-opacity:0.0; 
stroke:#000000; stroke-width:39.3701; stroke-opacity:1; 
stroke-linecap:round; stroke-linejoin:round;">
</g>
<g style="fill:#000000; fill-opacity:0.0; 
stroke:#000000; stroke-width:59.0551; stroke-opacity:1; 
stroke-linecap:round; stroke-linejoin:round;">
<path d="M82677 77955
L82677 78742
" />
</g>
<g style="fill:#000000; fill-opacity:0.0; 
stroke:#000000; stroke-width:39.3701; stroke-opacity:1; 
stroke-linecap:round; stroke-linejoin:round;">
</g>
<g style="fill:#000000; fill-opacity:0.0; 
stroke:#000000; stroke-width:59.0551; stroke-opacity:1; 
stroke-linecap:round; stroke-linejoin:round;">
<path d="M102362 77955
L102362 78742
" />
</g>
<g style="fill:#000000; fill-opacity:0.0; 
stroke:#000000; stroke-width:39.3701; stroke-opacity:1; 
stroke-linecap:round; stroke-linejoin:round;">
</g>
<g style="fill:#000000; fill-opacity:0.0; 
stroke:#000000; stroke-width:59.0551; stroke-opacity:1; 
stroke-linecap:round; stroke-linejoin:round;">
<path d="M14199 78580
L13906 78580
" />
<path d="M14052 78580
L14052 78069
L14004 78142
L13955 78190
L13906 78215
" />
</g>
<g style="fill:#000000; fill-opacity:0.0; 
stroke:#000000; stroke-width:39.3701; stroke-opacity:1; 
stroke-linecap:round; stroke-linejoin:round;">
</g>
<g style="fill:#000000; fill-opacity:0.0; 
stroke:#000000; stroke-width:59.0551; stroke-opacity:1; 
stroke-linecap:round; stroke-linejoin:round;">
<path d="M33591 78117
L33615 78093
L33664 78069
L33786 78069
L33835 78093
L33859 78117
L33884 78166
L33884 78215
L33859 78288
L33567 78580
L33884 78580
" />
</g>
<g style="fill:#000000; fill-opacity:0.0; 
stroke:#000000; stroke-width:39.3701; stroke-opacity:1; 
stroke-linecap:round; stroke-linejoin:round;">
</g>
<g style="fill:#000000; fill-opacity:0.0; 
stroke:#000000; stroke-width:59.0551; stroke-opacity:1; 
stroke-linecap:round; stroke-linejoin:round;">
<path d="M53252 78069
L53569 78069
L53398 78263
L53471 78263
L53520 78288
L53544 78312
L53569 78361
L53569 78483
L53544 78532
L53520 78556
L53471 78580
L53325 78580
L53276 78556
L53252 78532
" />
</g>
<g style="fill:#000000; fill-opacity:0.0; 
stroke:#000000; stroke-width:39.3701; stroke-opacity:1; 
stroke-linecap:round; stroke-linejoin:round;">
</g>
<g style="fill:#000000; fill-opacity:0.0; 
stroke:#000000; stroke-width:59.0551; stroke-opacity:1; 
stroke-linecap:round; stroke-linejoin:round;">
<path d="M73205 78239
L73205 78580
" />
<path d="M73083 78044
L72961 78410
L73278 78410
" />
</g>
<g style="fill:#000000; fill-opacity:0.0; 
stroke:#000000; stroke-width:39.3701; stroke-opacity:1; 
stroke-linecap:round; stroke-linejoin:round;">
</g>
<g style="fill:#000000; fill-opacity:0.0; 
stroke:#000000; stroke-width:59.0551; stroke-opacity:1; 
stroke-linecap:round; stroke-linejoin:round;">
<path d="M92914 78069
L92671 78069
L92646 78312
L92671 78288
L92719 78263
L92841 78263
L92890 78288
L92914 78312
L92939 78361
L92939 78483
L92914 78532
L92890 78556
L92841 78580
L92719 78580
L92671 78556
L92646 78532
" />
</g>
<g style="fill:#000000; fill-opacity:0.0; 
stroke:#000000; stroke-width:39.3701; stroke-opacity:1; 
stroke-linecap:round; stroke-linejoin:round;">
</g>
<g style="fill:#000000; fill-opacity:0.0; 
stroke:#000000; stroke-width:59.0551; stroke-opacity:1; 
stroke-linecap:round; stroke-linejoin:round;">
<path d="M112575 78069
L112477 78069
L112429 78093
L112404 78117
L112356 78190
L112331 78288
L112331 78483
L112356 78532
L112380 78556
L112429 78580
L112526 78580
L112575 78556
L112599 78532
L112624 78483
L112624 78361
L112599 78312
L112575 78288
L112526 78263
L112429 78263
L112380 78288
L112356 78312
L112331 78361
" />
</g>
<g style="fill:#000000; fill-opacity:0.0; 
stroke:#000000; stroke-width:39.3701; stroke-opacity:1; 
stroke-linecap:round; stroke-linejoin:round;">
</g>
<g style="fill:#000000; fill-opacity:0.0; 
stroke:#000000; stroke-width:59.0551; stroke-opacity:1; 
stroke-linecap:round; stroke-linejoin:round;">
<path d="M3937 23622
L4724 23622
" />
</g>
<g style="fill:#000000; fill-opacity:0.0; 
stroke:#000000; stroke-width:39.3701; stroke-opacity:1; 
stroke-linecap:round; stroke-linejoin:round;">
</g>
<g style="fill:#000000; fill-opacity:0.0; 
stroke:#000000; stroke-width:59.0551; stroke-opacity:1; 
stroke-linecap:round; stroke-linejoin:round;">
<path d="M3937 43307
L4724 43307
" />
</g>
<g style="fill:#000000; fill-opacity:0.0; 
stroke:#000000; stroke-width:39.3701; stroke-opacity:1; 
stroke-linecap:round; stroke-linejoin:round;">
</g>
<g style="fill:#000000; fill-opacity:0.0; 
stroke:#000000; stroke-width:59.0551; stroke-opacity:1; 
stroke-linecap:round; stroke-linejoin:round;">
<path d="M3937 62992
L4724 62992
" />
</g>
<g style="fill:#000000; fill-opacity:0.0; 
stroke:#000000; stroke-width:39.3701; stroke-opacity:1; 
stroke-linecap:round; stroke-linejoin:round;">
</g>
<g style="fill:#000000; fill-opacity:0.0; 
stroke:#000000; stroke-width:59.0551; stroke-opacity:1; 
stroke-linecap:round; stroke-linejoin:round;">
<path d="M4208 13864
L4452 13864
" />
<path d="M4160 14011
L4330 13499
L4501 14011
" />
</g>
<g style="fill:#000000; fill-opacity:0.0; 
stroke:#000000; stroke-width:39.3701; stroke-opacity:1; 
stroke-linecap:round; stroke-linejoin:round;">
</g>
<g style="fill:#000000; fill-opacity:0.0; 
stroke:#000000; stroke-width:59.0551; stroke-opacity:1; 
stroke-linecap:round; stroke-linejoin:round;">
<path d="M4367 33428
L4440 33452
L4464 33476
L4489 33525
L4489 33598
L4464 33647
L4440 33671
L4391 33696
L4196 33696
L4196 33184
L4367 33184
L4416 33208
L4440 33233
L4464 33281
L4464 33330
L4440 33379
L4416 33403
L4367 33428
L4196 33428
" />
</g>
<g style="fill:#000000; fill-opacity:0.0; 
stroke:#000000; stroke-width:39.3701; stroke-opacity:1; 
stroke-linecap:round; stroke-linejoin:round;">
</g>
<g style="fill:#000000; fill-opacity:0.0; 
stroke:#000000; stroke-width:59.0551; stroke-opacity:1; 
stroke-linecap:round; stroke-linejoin:round;">
<path d="M4489 53332
L4464 53356
L4391 53381
L4342 53381
L4269 53356
L4221 53308
L4196 53259
L4172 53161
L4172 53088
L4196 52991
L4221 52942
L4269 52893
L4342 52869
L4391 52869
L4464 52893
L4489 52918
" />
</g>
<g style="fill:#000000; fill-opacity:0.0; 
stroke:#000000; stroke-width:39.3701; stroke-opacity:1; 
stroke-linecap:round; stroke-linejoin:round;">
</g>
<g style="fill:#000000; fill-opacity:0.0; 
stroke:#000000; stroke-width:59.0551; stroke-opacity:1; 
stroke-linecap:round; stroke-linejoin:round;">
<path d="M4196 73066
L4196 72554
L4318 72554
L4391 72578
L4440 72627
L4464 72676
L4489 72773
L4489 72846
L4464 72944
L4440 72993
L4391 73041
L4318 73066
L4196 73066
" />
</g>
<g style="fill:#000000; fill-opacity:0.0; 
stroke:#000000; stroke-width:39.3701; stroke-opacity:1; 
stroke-linecap:round; stroke-linejoin:round;">
</g>
<g style="fill:#000000; fill-opacity:0.0; 
stroke:#000000; stroke-width:59.0551; stroke-opacity:1; 
stroke-linecap:round; stroke-linejoin:round;">
<path d="M112992 23622
L112205 23622
" />
</g>
<g style="fill:#000000; fill-opacity:0.0; 
stroke:#000000; stroke-width:39.3701; stroke-opacity:1; 
stroke-linecap:round; stroke-linejoin:round;">
</g>
<g style="fill:#000000; fill-opacity:0.0; 
stroke:#000000; stroke-width:59.0551; stroke-opacity:1; 
stroke-linecap:round; stroke-linejoin:round;">
<path d="M112992 43307
L112205 43307
" />
</g>
<g style="fill:#000000; fill-opacity:0.0; 
stroke:#000000; stroke-width:39.3701; stroke-opacity:1; 
stroke-linecap:round; stroke-linejoin:round;">
</g>
<g style="fill:#000000; fill-opacity:0.0; 
stroke:#000000; stroke-width:59.0551; stroke-opacity:1; 
stroke-linecap:round; stroke-linejoin:round;">
<path d="M112992 62992
L112205 62992
" />
</g>
<g style="fill:#000000; fill-opacity:0.0; 
stroke:#000000; stroke-width:39.3701; stroke-opacity:1; 
stroke-linecap:round; stroke-linejoin:round;">
</g>
<g style="fill:#000000; fill-opacity:0.0; 
stroke:#000000; stroke-width:59.0551; stroke-opacity:1; 
stroke-linecap:round; stroke-linejoin:round;">
<path d="M112477 13864
L112721 13864
" />
<path d="M112428 14011
L112599 13499
L112769 14011
" />
</g>
<g style="fill:#000000; fill-opacity:0.0; 
stroke:#000000; stroke-width:39.3701; stroke-opacity:1; 
stroke-linecap:round; stroke-linejoin:round;">
</g>
<g style="fill:#000000; fill-opacity:0.0; 
stroke:#000000; stroke-width:59.0551; stroke-opacity:1; 
stroke-linecap:round; stroke-linejoin:round;">
<path d="M112635 33428
L112708 33452
L112733 33476
L112757 33525
L112757 33598
L112733 33647
L112708 33671
L112660 33696
L112465 33696
L112465 33184
L112635 33184
L112684 33208
L112708 33233
L112733 33281
L112733 33330
L112708 33379
L112684 33403
L112635 33428
L112465 33428
" />
</g>
<g style="fill:#000000; fill-opacity:0.0; 
stroke:#000000; stroke-width:39.3701; stroke-opacity:1; 
stroke-linecap:round; stroke-linejoin:round;">
</g>
<g style="fill:#000000; fill-opacity:0.0; 
stroke:#000000; stroke-width:59.0551; stroke-opacity:1; 
stroke-linecap:round; stroke-linejoin:round;">
<path d="M112757 53332
L112733 53356
L112660 53381
L112611 53381
L112538 53356
L112489 53308
L112465 53259
L112440 53161
L112440 53088
L112465 52991
L112489 52942
L112538 52893
L112611 52869
L112660 52869
L112733 52893
L112757 52918
" />
</g>
<g style="fill:#000000; fill-opacity:0.0; 
stroke:#000000; stroke-width:39.3701; stroke-opacity:1; 
stroke-linecap:round; stroke-linejoin:round;">
</g>
<g style="fill:#000000; fill-opacity:0.0; 
stroke:#000000; stroke-width:59.0551; stroke-opacity:1; 
stroke-linecap:round; stroke-linejoin:round;">
<path d="M112465 73066
L112465 72554
L112587 72554
L112660 72578
L112708 72627
L112733 72676
L112757 72773
L112757 72846
L112733 72944
L112708 72993
L112660 73041
L112587 73066
L112465 73066
" />
</g>
<g style="fill:#000000; fill-opacity:0.0; 
stroke:#000000; stroke-width:39.3701; stroke-opacity:1; 
stroke-linecap:round; stroke-linejoin:round;">
</g>
<g style="fill:#000000; fill-opacity:0.0; 
stroke:#000000; stroke-width:59.0551; stroke-opacity:1; 
stroke-linecap:round; stroke-linejoin:round;">
<path d="M78911 76293
L78911 75703
L79051 75703
L79136 75731
L79192 75787
L79220 75843
L79248 75956
L79248 76040
L79220 76153
L79192 76209
L79136 76265
L79051 76293
L78911 76293
" />
<path d="M79754 76293
L79754 75984
L79726 75928
L79670 75899
L79557 75899
L79501 75928
" />
<path d="M79754 76265
L79698 76293
L79557 76293
L79501 76265
L79473 76209
L79473 76153
L79501 76096
L79557 76068
L79698 76068
L79754 76040
" />
<path d="M79951 75899
L80176 75899
" />
<path d="M80036 75703
L80036 76209
L80064 76265
L80120 76293
L80176 76293
" />
<path d="M80598 76265
L80542 76293
L80429 76293
L80373 76265
L80345 76209
L80345 75984
L80373 75928
L80429 75899
L80542 75899
L80598 75928
L80626 75984
L80626 76040
L80345 76096
" />
<path d="M80879 76237
L80907 76265
L80879 76293
L80851 76265
L80879 76237
L80879 76293
" />
<path d="M80879 75928
L80907 75956
L80879 75984
L80851 75956
L80879 75928
L80879 75984
" />
<path d="M81582 75759
L81610 75731
L81667 75703
L81807 75703
L81863 75731
L81892 75759
L81920 75815
L81920 75871
L81892 75956
L81554 76293
L81920 76293
" />
<path d="M82285 75703
L82341 75703
L82398 75731
L82426 75759
L82454 75815
L82482 75928
L82482 76068
L82454 76181
L82426 76237
L82398 76265
L82341 76293
L82285 76293
L82229 76265
L82201 76237
L82173 76181
L82145 76068
L82145 75928
L82173 75815
L82201 75759
L82229 75731
L82285 75703
" />
<path d="M83045 76293
L82707 76293
" />
<path d="M82876 76293
L82876 75703
L82820 75787
L82763 75843
L82707 75871
" />
<path d="M83326 76293
L83438 76293
L83494 76265
L83523 76237
L83579 76153
L83607 76040
L83607 75815
L83579 75759
L83551 75731
L83494 75703
L83382 75703
L83326 75731
L83298 75759
L83269 75815
L83269 75956
L83298 76012
L83326 76040
L83382 76068
L83494 76068
L83551 76040
L83579 76012
L83607 75956
" />
<path d="M83860 76068
L84310 76068
" />
<path d="M84704 75703
L84760 75703
L84816 75731
L84844 75759
L84872 75815
L84901 75928
L84901 76068
L84872 76181
L84844 76237
L84816 76265
L84760 76293
L84704 76293
L84647 76265
L84619 76237
L84591 76181
L84563 76068
L84563 75928
L84591 75815
L84619 75759
L84647 75731
L84704 75703
" />
<path d="M85435 75703
L85154 75703
L85126 75984
L85154 75956
L85210 75928
L85350 75928
L85407 75956
L85435 75984
L85463 76040
L85463 76181
L85435 76237
L85407 76265
L85350 76293
L85210 76293
L85154 76265
L85126 76237
" />
<path d="M85716 76068
L86166 76068
" />
<path d="M86419 75759
L86447 75731
L86503 75703
L86644 75703
L86700 75731
L86728 75759
L86757 75815
L86757 75871
L86728 75956
L86391 76293
L86757 76293
" />
<path d="M86953 75703
L87347 75703
L87094 76293
" />
</g>
<g style="fill:#000000; fill-opacity:0.0; 
stroke:#000000; stroke-width:39.3701; stroke-opacity:1; 
stroke-linecap:round; stroke-linejoin:round;">
</g>
<g style="fill:#000000; fill-opacity:0.0; 
stroke:#000000; stroke-width:59.0551; stroke-opacity:1; 
stroke-linecap:round; stroke-linejoin:round;">
<path d="M69685 76577
L112205 76577
" />
</g>
<g style="fill:#000000; fill-opacity:0.0; 
stroke:#000000; stroke-width:39.3701; stroke-opacity:1; 
stroke-linecap:round; stroke-linejoin:round;">
</g>
<g style="fill:#000000; fill-opacity:0.0; 
stroke:#000000; stroke-width:59.0551; stroke-opacity:1; 
stroke-linecap:round; stroke-linejoin:round;">
<path d="M70249 77395
L70249 76805
" />
<path d="M70587 77395
L70334 77058
" />
<path d="M70587 76805
L70249 77142
" />
<path d="M70840 77395
L70840 77002
" />
<path d="M70840 76805
L70812 76833
L70840 76861
L70868 76833
L70840 76805
L70840 76861
" />
<path d="M71458 77339
L71430 77367
L71346 77395
L71290 77395
L71205 77367
L71149 77311
L71121 77255
L71093 77142
L71093 77058
L71121 76946
L71149 76889
L71205 76833
L71290 76805
L71346 76805
L71430 76833
L71458 76861
" />
<path d="M71965 77395
L71965 77086
L71937 77030
L71880 77002
L71768 77002
L71712 77030
" />
<path d="M71965 77367
L71908 77395
L71768 77395
L71712 77367
L71683 77311
L71683 77255
L71712 77199
L71768 77171
L71908 77171
L71965 77142
" />
<path d="M72499 77395
L72499 76805
" />
<path d="M72499 77367
L72443 77395
L72330 77395
L72274 77367
L72246 77339
L72218 77283
L72218 77114
L72246 77058
L72274 77030
L72330 77002
L72443 77002
L72499 77030
" />
<path d="M73230 77086
L73427 77086
" />
<path d="M73511 77395
L73230 77395
L73230 76805
L73511 76805
" />
<path d="M73764 77339
L73793 77367
L73764 77395
L73736 77367
L73764 77339
L73764 77395
" />
<path d="M74046 77395
L74046 76805
L74186 76805
L74271 76833
L74327 76889
L74355 76946
L74383 77058
L74383 77142
L74355 77255
L74327 77311
L74271 77367
L74186 77395
L74046 77395
" />
<path d="M74636 77339
L74664 77367
L74636 77395
L74608 77367
L74636 77339
L74636 77395
" />
<path d="M74889 77227
L75171 77227
" />
<path d="M74833 77395
L75030 76805
L75227 77395
" />
<path d="M75424 77339
L75452 77367
L75424 77395
L75395 77367
L75424 77339
L75424 77395
" />
<path d="M76605 77395
L76605 76805
" />
<path d="M76661 77171
L76830 77395
" />
<path d="M76830 77002
L76605 77227
" />
<path d="M77083 77395
L77083 77002
" />
<path d="M77083 76805
L77055 76833
L77083 76861
L77111 76833
L77083 76805
L77083 76861
" />
<path d="M77617 77367
L77561 77395
L77448 77395
L77392 77367
L77364 77339
L77336 77283
L77336 77114
L77364 77058
L77392 77030
L77448 77002
L77561 77002
L77617 77030
" />
<path d="M78123 77395
L78123 77086
L78095 77030
L78039 77002
L77926 77002
L77870 77030
" />
<path d="M78123 77367
L78067 77395
L77926 77395
L77870 77367
L77842 77311
L77842 77255
L77870 77199
L77926 77171
L78067 77171
L78123 77142
" />
<path d="M78658 77395
L78658 76805
" />
<path d="M78658 77367
L78601 77395
L78489 77395
L78433 77367
L78404 77339
L78376 77283
L78376 77114
L78404 77058
L78433 77030
L78489 77002
L78601 77002
L78658 77030
" />
<path d="M79557 77620
L79529 77592
L79473 77508
L79445 77452
L79417 77367
L79389 77227
L79389 77114
L79417 76974
L79445 76889
L79473 76833
L79529 76749
L79557 76721
" />
<path d="M80064 76805
L79782 76805
L79754 77086
L79782 77058
L79839 77030
L79979 77030
L80036 77058
L80064 77086
L80092 77142
L80092 77283
L80064 77339
L80036 77367
L79979 77395
L79839 77395
L79782 77367
L79754 77339
" />
<path d="M80345 77339
L80373 77367
L80345 77395
L80317 77367
L80345 77339
L80345 77395
" />
<path d="M80739 76805
L80795 76805
L80851 76833
L80879 76861
L80907 76917
L80935 77030
L80935 77171
L80907 77283
L80879 77339
L80851 77367
L80795 77395
L80739 77395
L80682 77367
L80654 77339
L80626 77283
L80598 77171
L80598 77030
L80626 76917
L80654 76861
L80682 76833
L80739 76805
" />
<path d="M81188 77339
L81217 77367
L81188 77395
L81160 77367
L81188 77339
L81188 77395
" />
<path d="M81442 76861
L81470 76833
L81526 76805
L81667 76805
L81723 76833
L81751 76861
L81779 76917
L81779 76974
L81751 77058
L81413 77395
L81779 77395
" />
<path d="M81976 77620
L82004 77592
L82060 77508
L82088 77452
L82117 77367
L82145 77227
L82145 77114
L82117 76974
L82088 76889
L82060 76833
L82004 76749
L81976 76721
" />
<path d="M82426 77171
L82876 77171
" />
<path d="M83466 77395
L83129 77395
" />
<path d="M83298 77395
L83298 76805
L83241 76889
L83185 76946
L83129 76974
" />
</g>
<g style="fill:#000000; fill-opacity:0.0; 
stroke:#000000; stroke-width:39.3701; stroke-opacity:1; 
stroke-linecap:round; stroke-linejoin:round;">
</g>
<g style="fill:#000000; fill-opacity:0.0; 
stroke:#000000; stroke-width:59.0551; stroke-opacity:1; 
stroke-linecap:round; stroke-linejoin:round;">
<path d="M69685 75396
L112205 75396
" />
</g>
<g style="fill:#000000; fill-opacity:0.0; 
stroke:#000000; stroke-width:39.3701; stroke-opacity:1; 
stroke-linecap:round; stroke-linejoin:round;">
</g>
<g style="fill:#000000; fill-opacity:0.0; 
stroke:#000000; stroke-width:118.11; stroke-opacity:1; 
stroke-linecap:round; stroke-linejoin:round;">
<path d="M104099 76293
L103902 76012
" />
<path d="M103761 76293
L103761 75703
L103986 75703
L104042 75731
L104070 75759
L104099 75815
L104099 75899
L104070 75956
L104042 75984
L103986 76012
L103761 76012
" />
<path d="M104577 76265
L104520 76293
L104408 76293
L104352 76265
L104323 76209
L104323 75984
L104352 75928
L104408 75899
L104520 75899
L104577 75928
L104605 75984
L104605 76040
L104323 76096
" />
<path d="M104802 75899
L104942 76293
L105083 75899
" />
<path d="M105308 76237
L105336 76265
L105308 76293
L105280 76265
L105308 76237
L105308 76293
" />
<path d="M105308 75928
L105336 75956
L105308 75984
L105280 75956
L105308 75928
L105308 75984
" />
</g>
<g style="fill:#000000; fill-opacity:0.0; 
stroke:#000000; stroke-width:39.3701; stroke-opacity:1; 
stroke-linecap:round; stroke-linejoin:round;">
</g>
<g style="fill:#000000; fill-opacity:0.0; 
stroke:#000000; stroke-width:59.0551; stroke-opacity:1; 
stroke-linecap:round; stroke-linejoin:round;">
<path d="M70221 76265
L70305 76293
L70446 76293
L70502 76265
L70530 76237
L70559 76181
L70559 76124
L70530 76068
L70502 76040
L70446 76012
L70334 75984
L70277 75956
L70249 75928
L70221 75871
L70221 75815
L70249 75759
L70277 75731
L70334 75703
L70474 75703
L70559 75731
" />
<path d="M70812 76293
L70812 75899
" />
<path d="M70812 75703
L70784 75731
L70812 75759
L70840 75731
L70812 75703
L70812 75759
" />
<path d="M71037 75899
L71346 75899
L71037 76293
L71346 76293
" />
<path d="M71796 76265
L71740 76293
L71627 76293
L71571 76265
L71543 76209
L71543 75984
L71571 75928
L71627 75899
L71740 75899
L71796 75928
L71824 75984
L71824 76040
L71543 76096
" />
<path d="M72077 76237
L72105 76265
L72077 76293
L72049 76265
L72077 76237
L72077 76293
" />
<path d="M72077 75928
L72105 75956
L72077 75984
L72049 75956
L72077 75928
L72077 75984
" />
<path d="M72780 76124
L73061 76124
" />
<path d="M72724 76293
L72921 75703
L73118 76293
" />
<path d="M73568 75899
L73568 76293
" />
<path d="M73427 75674
L73286 76096
L73652 76096
" />
</g>
<g style="fill:#000000; fill-opacity:0.0; 
stroke:#000000; stroke-width:39.3701; stroke-opacity:1; 
stroke-linecap:round; stroke-linejoin:round;">
</g>
<g style="fill:#000000; fill-opacity:0.0; 
stroke:#000000; stroke-width:59.0551; stroke-opacity:1; 
stroke-linecap:round; stroke-linejoin:round;">
<path d="M103714 77395
L103714 76805
" />
<path d="M104248 77395
L104248 76805
" />
<path d="M104248 77367
L104192 77395
L104079 77395
L104023 77367
L103995 77339
L103967 77283
L103967 77114
L103995 77058
L104023 77030
L104079 77002
L104192 77002
L104248 77030
" />
<path d="M104529 77339
L104557 77367
L104529 77395
L104501 77367
L104529 77339
L104529 77395
" />
<path d="M104529 77030
L104557 77058
L104529 77086
L104501 77058
L104529 77030
L104529 77086
" />
<path d="M105570 77395
L105232 77395
" />
<path d="M105401 77395
L105401 76805
L105345 76889
L105289 76946
L105232 76974
" />
<path d="M106245 76777
L105739 77536
" />
<path d="M106751 77395
L106413 77395
" />
<path d="M106582 77395
L106582 76805
L106526 76889
L106470 76946
L106413 76974
" />
</g>
<g style="fill:#000000; fill-opacity:0.0; 
stroke:#000000; stroke-width:39.3701; stroke-opacity:1; 
stroke-linecap:round; stroke-linejoin:round;">
</g>
<g style="fill:#000000; fill-opacity:0.0; 
stroke:#000000; stroke-width:59.0551; stroke-opacity:1; 
stroke-linecap:round; stroke-linejoin:round;">
<path d="M69685 73821
L112205 73821
" />
</g>
<g style="fill:#000000; fill-opacity:0.0; 
stroke:#000000; stroke-width:39.3701; stroke-opacity:1; 
stroke-linecap:round; stroke-linejoin:round;">
</g>
<g style="fill:#000000; fill-opacity:0.0; 
stroke:#000000; stroke-width:157.48; stroke-opacity:1; 
stroke-linecap:round; stroke-linejoin:round;">
<path d="M70360 74099
L70810 74099
" />
<path d="M70486 74886
L70585 74099
" />
<path d="M70974 74886
L71039 74361
" />
<path d="M71072 74099
L71030 74136
L71063 74174
L71105 74136
L71072 74099
L71063 74174
" />
<path d="M71302 74361
L71602 74361
" />
<path d="M71447 74099
L71363 74774
L71391 74849
L71461 74886
L71536 74886
" />
<path d="M71911 74886
L71841 74849
L71813 74774
L71897 74099
" />
<path d="M72516 74849
L72436 74886
L72286 74886
L72216 74849
L72187 74774
L72225 74474
L72272 74399
L72352 74361
L72501 74361
L72572 74399
L72600 74474
L72591 74549
L72206 74624
" />
<path d="M72895 74811
L72928 74849
L72886 74886
L72853 74849
L72895 74811
L72886 74886
" />
<path d="M72947 74399
L72980 74436
L72937 74474
L72905 74436
L72947 74399
L72937 74474
" />
<path d="M73828 74849
L73936 74886
L74123 74886
L74203 74849
L74245 74811
L74292 74736
L74301 74661
L74273 74586
L74240 74549
L74170 74511
L74025 74474
L73954 74436
L73922 74399
L73894 74324
L73903 74249
L73950 74174
L73992 74136
L74072 74099
L74259 74099
L74367 74136
" />
<path d="M74611 74886
L74676 74361
" />
<path d="M74709 74099
L74667 74136
L74700 74174
L74742 74136
L74709 74099
L74700 74174
" />
<path d="M75051 74361
L74986 74886
" />
<path d="M75042 74436
L75084 74399
L75164 74361
L75276 74361
L75346 74399
L75375 74474
L75323 74886
" />
<path d="M76101 74361
L76021 74999
L75974 75074
L75932 75111
L75853 75149
L75740 75149
L75670 75111
" />
<path d="M76040 74849
L75960 74886
L75810 74886
L75740 74849
L75707 74811
L75679 74736
L75707 74511
L75754 74436
L75796 74399
L75876 74361
L76026 74361
L76096 74399
" />
<path d="M76523 74886
L76453 74849
L76424 74774
L76509 74099
" />
<path d="M77127 74849
L77048 74886
L76898 74886
L76828 74849
L76799 74774
L76837 74474
L76884 74399
L76963 74361
L77113 74361
L77184 74399
L77212 74474
L77202 74549
L76818 74624
" />
<path d="M77301 74961
L77901 74961
" />
<path d="M78084 74099
L78534 74099
" />
<path d="M78210 74886
L78309 74099
" />
<path d="M78698 74886
L78763 74361
" />
<path d="M78744 74511
L78791 74436
L78834 74399
L78913 74361
L78988 74361
" />
<path d="M79522 74886
L79574 74474
L79546 74399
L79476 74361
L79326 74361
L79246 74399
" />
<path d="M79527 74849
L79447 74886
L79260 74886
L79190 74849
L79162 74774
L79171 74699
L79218 74624
L79298 74586
L79485 74586
L79565 74549
" />
<path d="M79963 74361
L79897 74886
" />
<path d="M79954 74436
L79996 74399
L80076 74361
L80188 74361
L80258 74399
L80286 74474
L80235 74886
" />
<path d="M80577 74849
L80647 74886
L80797 74886
L80877 74849
L80924 74774
L80929 74736
L80900 74661
L80830 74624
L80718 74624
L80647 74586
L80619 74511
L80624 74474
L80671 74399
L80750 74361
L80863 74361
L80933 74399
" />
<path d="M81247 74886
L81313 74361
" />
<path d="M81346 74099
L81304 74136
L81336 74174
L81379 74136
L81346 74099
L81336 74174
" />
<path d="M81589 74849
L81660 74886
L81810 74886
L81889 74849
L81936 74774
L81941 74736
L81913 74661
L81843 74624
L81730 74624
L81660 74586
L81632 74511
L81636 74474
L81683 74399
L81763 74361
L81875 74361
L81946 74399
" />
<path d="M82213 74361
L82513 74361
" />
<path d="M82358 74099
L82274 74774
L82302 74849
L82372 74886
L82447 74886
" />
<path d="M82822 74886
L82752 74849
L82719 74811
L82691 74736
L82719 74511
L82766 74436
L82808 74399
L82888 74361
L83000 74361
L83070 74399
L83103 74436
L83131 74511
L83103 74736
L83056 74811
L83014 74849
L82935 74886
L82822 74886
" />
<path d="M83422 74886
L83488 74361
" />
<path d="M83469 74511
L83516 74436
L83558 74399
L83638 74361
L83713 74361
" />
<path d="M83713 74961
L84313 74961
" />
<path d="M84500 74661
L84875 74661
" />
<path d="M84397 74886
L84758 74099
L84922 74886
" />
<path d="M85184 74886
L85283 74099
L85475 74661
L85808 74099
L85709 74886
" />
<path d="M86084 74886
L86183 74099
L86483 74099
L86553 74136
L86586 74174
L86614 74249
L86600 74361
L86553 74436
L86511 74474
L86431 74511
L86131 74511
" />
</g>
<g style="fill:#000000; fill-opacity:0.0; 
stroke:#000000; stroke-width:39.3701; stroke-opacity:1; 
stroke-linecap:round; stroke-linejoin:round;">
</g>
<g style="fill:#000000; fill-opacity:0.0; 
stroke:#000000; stroke-width:59.0551; stroke-opacity:1; 
stroke-linecap:round; stroke-linejoin:round;">
<path d="M70446 73070
L70249 73070
" />
<path d="M70249 73380
L70249 72789
L70530 72789
" />
<path d="M70755 73380
L70755 72986
" />
<path d="M70755 72789
L70727 72817
L70755 72845
L70784 72817
L70755 72789
L70755 72845
" />
<path d="M71121 73380
L71065 73352
L71037 73295
L71037 72789
" />
<path d="M71571 73352
L71515 73380
L71402 73380
L71346 73352
L71318 73295
L71318 73070
L71346 73014
L71402 72986
L71515 72986
L71571 73014
L71599 73070
L71599 73127
L71318 73183
" />
<path d="M71852 73323
L71880 73352
L71852 73380
L71824 73352
L71852 73323
L71852 73380
" />
<path d="M71852 73014
L71880 73042
L71852 73070
L71824 73042
L71852 73014
L71852 73070
" />
<path d="M72555 73352
L72640 73380
L72780 73380
L72836 73352
L72865 73323
L72893 73267
L72893 73211
L72865 73155
L72836 73127
L72780 73099
L72668 73070
L72611 73042
L72583 73014
L72555 72958
L72555 72902
L72583 72845
L72611 72817
L72668 72789
L72808 72789
L72893 72817
" />
<path d="M73146 73380
L73146 72986
" />
<path d="M73146 72789
L73118 72817
L73146 72845
L73174 72817
L73146 72789
L73146 72845
" />
<path d="M73427 72986
L73427 73380
" />
<path d="M73427 73042
L73455 73014
L73511 72986
L73596 72986
L73652 73014
L73680 73070
L73680 73380
" />
<path d="M74214 72986
L74214 73464
L74186 73520
L74158 73548
L74102 73577
L74018 73577
L73961 73548
" />
<path d="M74214 73352
L74158 73380
L74046 73380
L73989 73352
L73961 73323
L73933 73267
L73933 73099
L73961 73042
L73989 73014
L74046 72986
L74158 72986
L74214 73014
" />
<path d="M74580 73380
L74524 73352
L74496 73295
L74496 72789
" />
<path d="M75030 73352
L74974 73380
L74861 73380
L74805 73352
L74777 73295
L74777 73070
L74805 73014
L74861 72986
L74974 72986
L75030 73014
L75058 73070
L75058 73127
L74777 73183
" />
<path d="M75171 73436
L75620 73436
" />
<path d="M75677 72789
L76014 72789
" />
<path d="M75845 73380
L75845 72789
" />
<path d="M76211 73380
L76211 72986
" />
<path d="M76211 73099
L76239 73042
L76267 73014
L76323 72986
L76380 72986
" />
<path d="M76830 73380
L76830 73070
L76802 73014
L76745 72986
L76633 72986
L76577 73014
" />
<path d="M76830 73352
L76773 73380
L76633 73380
L76577 73352
L76548 73295
L76548 73239
L76577 73183
L76633 73155
L76773 73155
L76830 73127
" />
<path d="M77111 72986
L77111 73380
" />
<path d="M77111 73042
L77139 73014
L77195 72986
L77280 72986
L77336 73014
L77364 73070
L77364 73380
" />
<path d="M77617 73352
L77673 73380
L77786 73380
L77842 73352
L77870 73295
L77870 73267
L77842 73211
L77786 73183
L77701 73183
L77645 73155
L77617 73099
L77617 73070
L77645 73014
L77701 72986
L77786 72986
L77842 73014
" />
<path d="M78123 73380
L78123 72986
" />
<path d="M78123 72789
L78095 72817
L78123 72845
L78151 72817
L78123 72789
L78123 72845
" />
<path d="M78376 73352
L78433 73380
L78545 73380
L78601 73352
L78629 73295
L78629 73267
L78601 73211
L78545 73183
L78461 73183
L78404 73155
L78376 73099
L78376 73070
L78404 73014
L78461 72986
L78545 72986
L78601 73014
" />
<path d="M78798 72986
L79023 72986
" />
<path d="M78883 72789
L78883 73295
L78911 73352
L78967 73380
L79023 73380
" />
<path d="M79304 73380
L79248 73352
L79220 73323
L79192 73267
L79192 73099
L79220 73042
L79248 73014
L79304 72986
L79389 72986
L79445 73014
L79473 73042
L79501 73099
L79501 73267
L79473 73323
L79445 73352
L79389 73380
L79304 73380
" />
<path d="M79754 73380
L79754 72986
" />
<path d="M79754 73099
L79782 73042
L79811 73014
L79867 72986
L79923 72986
" />
<path d="M79979 73436
L80429 73436
" />
<path d="M80542 73211
L80823 73211
" />
<path d="M80485 73380
L80682 72789
L80879 73380
" />
<path d="M81076 73380
L81076 72789
L81273 73211
L81470 72789
L81470 73380
" />
<path d="M81751 73380
L81751 72789
L81976 72789
L82032 72817
L82060 72845
L82088 72902
L82088 72986
L82060 73042
L82032 73070
L81976 73099
L81751 73099
" />
<path d="M82285 72789
L82651 72789
L82454 73014
L82538 73014
L82595 73042
L82623 73070
L82651 73127
L82651 73267
L82623 73323
L82595 73352
L82538 73380
L82370 73380
L82313 73352
L82285 73323
" />
<path d="M82904 73323
L82932 73352
L82904 73380
L82876 73352
L82904 73323
L82904 73380
" />
<path d="M83185 73380
L83185 72789
" />
<path d="M83241 73155
L83410 73380
" />
<path d="M83410 72986
L83185 73211
" />
<path d="M83663 73380
L83663 72986
" />
<path d="M83663 72789
L83635 72817
L83663 72845
L83691 72817
L83663 72789
L83663 72845
" />
<path d="M84197 73352
L84141 73380
L84029 73380
L83973 73352
L83944 73323
L83916 73267
L83916 73099
L83944 73042
L83973 73014
L84029 72986
L84141 72986
L84197 73014
" />
<path d="M84704 73380
L84704 73070
L84676 73014
L84619 72986
L84507 72986
L84451 73014
" />
<path d="M84704 73352
L84647 73380
L84507 73380
L84451 73352
L84422 73295
L84422 73239
L84451 73183
L84507 73155
L84647 73155
L84704 73127
" />
<path d="M85238 73380
L85238 72789
" />
<path d="M85238 73352
L85182 73380
L85069 73380
L85013 73352
L84985 73323
L84957 73267
L84957 73099
L84985 73042
L85013 73014
L85069 72986
L85182 72986
L85238 73014
" />
<path d="M85379 73436
L85829 73436
" />
<path d="M85969 72986
L85969 73577
" />
<path d="M85969 73014
L86025 72986
L86138 72986
L86194 73014
L86222 73042
L86250 73099
L86250 73267
L86222 73323
L86194 73352
L86138 73380
L86025 73380
L85969 73352
" />
<path d="M86757 73352
L86700 73380
L86588 73380
L86532 73352
L86503 73323
L86475 73267
L86475 73099
L86503 73042
L86532 73014
L86588 72986
L86700 72986
L86757 73014
" />
<path d="M87010 73380
L87010 72789
" />
<path d="M87010 73014
L87066 72986
L87178 72986
L87235 73014
L87263 73042
L87291 73099
L87291 73267
L87263 73323
L87235 73352
L87178 73380
L87066 73380
L87010 73352
" />
</g>
<g style="fill:#000000; fill-opacity:0.0; 
stroke:#000000; stroke-width:39.3701; stroke-opacity:1; 
stroke-linecap:round; stroke-linejoin:round;">
</g>
<g style="fill:#000000; fill-opacity:0.0; 
stroke:#000000; stroke-width:59.0551; stroke-opacity:1; 
stroke-linecap:round; stroke-linejoin:round;">
<path d="M69685 71459
L112205 71459
" />
</g>
<g style="fill:#000000; fill-opacity:0.0; 
stroke:#000000; stroke-width:39.3701; stroke-opacity:1; 
stroke-linecap:round; stroke-linejoin:round;">
</g>
<g style="fill:#000000; fill-opacity:0.0; 
stroke:#000000; stroke-width:59.0551; stroke-opacity:1; 
stroke-linecap:round; stroke-linejoin:round;">
<path d="M70221 72289
L70305 72317
L70446 72317
L70502 72289
L70530 72260
L70559 72204
L70559 72148
L70530 72092
L70502 72064
L70446 72036
L70334 72007
L70277 71979
L70249 71951
L70221 71895
L70221 71839
L70249 71782
L70277 71754
L70334 71726
L70474 71726
L70559 71754
" />
<path d="M70812 72317
L70812 71726
" />
<path d="M71065 72317
L71065 72007
L71037 71951
L70980 71923
L70896 71923
L70840 71951
L70812 71979
" />
<path d="M71571 72289
L71515 72317
L71402 72317
L71346 72289
L71318 72232
L71318 72007
L71346 71951
L71402 71923
L71515 71923
L71571 71951
L71599 72007
L71599 72064
L71318 72120
" />
<path d="M72077 72289
L72021 72317
L71908 72317
L71852 72289
L71824 72232
L71824 72007
L71852 71951
L71908 71923
L72021 71923
L72077 71951
L72105 72007
L72105 72064
L71824 72120
" />
<path d="M72274 71923
L72499 71923
" />
<path d="M72358 71726
L72358 72232
L72386 72289
L72443 72317
L72499 72317
" />
<path d="M72696 72260
L72724 72289
L72696 72317
L72668 72289
L72696 72260
L72696 72317
" />
<path d="M72696 71951
L72724 71979
L72696 72007
L72668 71979
L72696 71951
L72696 72007
" />
</g>
<g style="fill:#000000; fill-opacity:0.0; 
stroke:#000000; stroke-width:39.3701; stroke-opacity:1; 
stroke-linecap:round; stroke-linejoin:round;">
</g>
<g style="fill:#000000; fill-opacity:0.0; 
stroke:#000000; stroke-width:118.11; stroke-opacity:1; 
stroke-linecap:round; stroke-linejoin:round;">
<path d="M70212 70545
L70409 71136
L70606 70545
" />
<path d="M71028 71108
L70971 71136
L70859 71136
L70803 71108
L70775 71051
L70775 70826
L70803 70770
L70859 70742
L70971 70742
L71028 70770
L71056 70826
L71056 70883
L70775 70939
" />
<path d="M71309 70742
L71309 71136
" />
<path d="M71309 70798
L71337 70770
L71393 70742
L71478 70742
L71534 70770
L71562 70826
L71562 71136
" />
<path d="M71815 71108
L71871 71136
L71984 71136
L72040 71108
L72068 71051
L72068 71023
L72040 70967
L71984 70939
L71899 70939
L71843 70911
L71815 70854
L71815 70826
L71843 70770
L71899 70742
L71984 70742
L72040 70770
" />
<path d="M72237 70742
L72462 70742
" />
<path d="M72321 70545
L72321 71051
L72349 71108
L72406 71136
L72462 71136
" />
<path d="M72659 70742
L72659 71332
" />
<path d="M72659 70770
L72715 70742
L72827 70742
L72884 70770
L72912 70798
L72940 70854
L72940 71023
L72912 71079
L72884 71108
L72827 71136
L72715 71136
L72659 71108
" />
<path d="M73193 71136
L73193 70742
" />
<path d="M73193 70545
L73165 70573
L73193 70601
L73221 70573
L73193 70545
L73193 70601
" />
<path d="M73559 71136
L73502 71108
L73474 71051
L73474 70545
" />
<path d="M73755 71108
L73812 71136
L73924 71136
L73980 71108
L74009 71051
L74009 71023
L73980 70967
L73924 70939
L73840 70939
L73784 70911
L73755 70854
L73755 70826
L73784 70770
L73840 70742
L73924 70742
L73980 70770
" />
<path d="M74683 70967
L74965 70967
" />
<path d="M74627 71136
L74824 70545
L75021 71136
" />
<path d="M75471 70742
L75471 71136
" />
<path d="M75218 70742
L75218 71051
L75246 71108
L75302 71136
L75386 71136
L75443 71108
L75471 71079
" />
<path d="M76005 70742
L76005 71220
L75977 71276
L75949 71304
L75893 71332
L75808 71332
L75752 71304
" />
<path d="M76005 71108
L75949 71136
L75836 71136
L75780 71108
L75752 71079
L75724 71023
L75724 70854
L75752 70798
L75780 70770
L75836 70742
L75949 70742
L76005 70770
" />
<path d="M76258 71108
L76314 71136
L76427 71136
L76483 71108
L76511 71051
L76511 71023
L76483 70967
L76427 70939
L76343 70939
L76286 70911
L76258 70854
L76258 70826
L76286 70770
L76343 70742
L76427 70742
L76483 70770
" />
<path d="M76680 70742
L76905 70742
" />
<path d="M76764 70545
L76764 71051
L76793 71108
L76849 71136
L76905 71136
" />
<path d="M77074 71108
L77130 71136
L77242 71136
L77299 71108
L77327 71051
L77327 71023
L77299 70967
L77242 70939
L77158 70939
L77102 70911
L77074 70854
L77074 70826
L77102 70770
L77158 70742
L77242 70742
L77299 70770
" />
<path d="M77580 71136
L77580 70545
" />
<path d="M77636 70911
L77805 71136
" />
<path d="M77805 70742
L77580 70967
" />
<path d="M78142 71136
L78086 71108
L78058 71079
L78030 71023
L78030 70854
L78058 70798
L78086 70770
L78142 70742
L78227 70742
L78283 70770
L78311 70798
L78339 70854
L78339 71023
L78311 71079
L78283 71108
L78227 71136
L78142 71136
" />
<path d="M78677 71136
L78620 71108
L78592 71051
L78592 70545
" />
<path d="M79155 71136
L79155 70826
L79127 70770
L79070 70742
L78958 70742
L78902 70770
" />
<path d="M79155 71108
L79099 71136
L78958 71136
L78902 71108
L78874 71051
L78874 70995
L78902 70939
L78958 70911
L79099 70911
L79155 70883
" />
</g>
<g style="fill:#000000; fill-opacity:0.0; 
stroke:#000000; stroke-width:39.3701; stroke-opacity:1; 
stroke-linecap:round; stroke-linejoin:round;">
</g>
<g style="fill:#000000; fill-opacity:0.0; 
stroke:#000000; stroke-width:59.0551; stroke-opacity:1; 
stroke-linecap:round; stroke-linejoin:round;">
<path d="M70249 69955
L70249 69364
L70390 69364
L70474 69392
L70530 69448
L70559 69505
L70587 69617
L70587 69701
L70559 69814
L70530 69870
L70474 69926
L70390 69955
L70249 69955
" />
<path d="M71093 69955
L71093 69645
L71065 69589
L71009 69561
L70896 69561
L70840 69589
" />
<path d="M71093 69926
L71037 69955
L70896 69955
L70840 69926
L70812 69870
L70812 69814
L70840 69758
L70896 69730
L71037 69730
L71093 69701
" />
<path d="M71374 69955
L71374 69561
" />
<path d="M71374 69673
L71402 69617
L71430 69589
L71487 69561
L71543 69561
" />
<path d="M71740 69955
L71740 69364
" />
<path d="M71740 69589
L71796 69561
L71908 69561
L71965 69589
L71993 69617
L72021 69673
L72021 69842
L71993 69898
L71965 69926
L71908 69955
L71796 69955
L71740 69926
" />
<path d="M72246 69926
L72302 69955
L72415 69955
L72471 69926
L72499 69870
L72499 69842
L72471 69786
L72415 69758
L72330 69758
L72274 69730
L72246 69673
L72246 69645
L72274 69589
L72330 69561
L72415 69561
L72471 69589
" />
<path d="M73202 69955
L73202 69364
" />
<path d="M73539 69955
L73286 69617
" />
<path d="M73539 69364
L73202 69701
" />
<path d="M73793 69955
L73793 69561
" />
<path d="M73793 69364
L73764 69392
L73793 69420
L73821 69392
L73793 69364
L73793 69420
" />
<path d="M74411 69898
L74383 69926
L74299 69955
L74242 69955
L74158 69926
L74102 69870
L74074 69814
L74046 69701
L74046 69617
L74074 69505
L74102 69448
L74158 69392
L74242 69364
L74299 69364
L74383 69392
L74411 69420
" />
<path d="M74917 69955
L74917 69645
L74889 69589
L74833 69561
L74721 69561
L74664 69589
" />
<path d="M74917 69926
L74861 69955
L74721 69955
L74664 69926
L74636 69870
L74636 69814
L74664 69758
L74721 69730
L74861 69730
L74917 69701
" />
<path d="M75452 69955
L75452 69364
" />
<path d="M75452 69926
L75395 69955
L75283 69955
L75227 69926
L75199 69898
L75171 69842
L75171 69673
L75199 69617
L75227 69589
L75283 69561
L75395 69561
L75452 69589
" />
<path d="M76183 69955
L76183 69364
" />
<path d="M76239 69730
L76408 69955
" />
<path d="M76408 69561
L76183 69786
" />
<path d="M76914 69561
L76914 69955
" />
<path d="M76661 69561
L76661 69870
L76689 69926
L76745 69955
L76830 69955
L76886 69926
L76914 69898
" />
<path d="M77195 69955
L77195 69561
" />
<path d="M77195 69673
L77223 69617
L77251 69589
L77308 69561
L77364 69561
" />
<path d="M77533 69926
L77589 69955
L77701 69955
L77758 69926
L77786 69870
L77786 69842
L77758 69786
L77701 69758
L77617 69758
L77561 69730
L77533 69673
L77533 69645
L77561 69589
L77617 69561
L77701 69561
L77758 69589
" />
<path d="M78292 69955
L78292 69645
L78264 69589
L78208 69561
L78095 69561
L78039 69589
" />
<path d="M78292 69926
L78236 69955
L78095 69955
L78039 69926
L78011 69870
L78011 69814
L78039 69758
L78095 69730
L78236 69730
L78292 69701
" />
<path d="M78011 69392
L78292 69392
" />
</g>
<g style="fill:#000000; fill-opacity:0.0; 
stroke:#000000; stroke-width:39.3701; stroke-opacity:1; 
stroke-linecap:round; stroke-linejoin:round;">
</g>
<g style="fill:#000000; fill-opacity:0.0; 
stroke:#000000; stroke-width:59.0551; stroke-opacity:1; 
stroke-linecap:round; stroke-linejoin:round;">
<path d="M70249 68773
L70249 68183
L70446 68605
L70643 68183
L70643 68773
" />
<path d="M70924 68773
L70924 68380
" />
<path d="M70924 68183
L70896 68211
L70924 68239
L70952 68211
L70924 68183
L70924 68239
" />
<path d="M71430 68745
L71374 68773
L71262 68773
L71205 68745
L71177 68689
L71177 68464
L71205 68408
L71262 68380
L71374 68380
L71430 68408
L71458 68464
L71458 68520
L71177 68577
" />
<path d="M71796 68773
L71740 68745
L71712 68689
L71712 68183
" />
<path d="M72274 68773
L72274 68464
L72246 68408
L72190 68380
L72077 68380
L72021 68408
" />
<path d="M72274 68745
L72218 68773
L72077 68773
L72021 68745
L71993 68689
L71993 68633
L72021 68577
L72077 68548
L72218 68548
L72274 68520
" />
<path d="M72499 68380
L72640 68773
L72780 68380
" />
<path d="M72977 68745
L73033 68773
L73146 68773
L73202 68745
L73230 68689
L73230 68661
L73202 68605
L73146 68577
L73061 68577
L73005 68548
L72977 68492
L72977 68464
L73005 68408
L73061 68380
L73146 68380
L73202 68408
" />
</g>
<g style="fill:#000000; fill-opacity:0.0; 
stroke:#000000; stroke-width:39.3701; stroke-opacity:1; 
stroke-linecap:round; stroke-linejoin:round;">
</g>
<g style="fill:#000000; fill-opacity:0.0; 
stroke:#000000; stroke-width:59.0551; stroke-opacity:1; 
stroke-linecap:round; stroke-linejoin:round;">
<path d="M70221 67564
L70305 67592
L70446 67592
L70502 67564
L70530 67536
L70559 67480
L70559 67424
L70530 67367
L70502 67339
L70446 67311
L70334 67283
L70277 67255
L70249 67227
L70221 67171
L70221 67114
L70249 67058
L70277 67030
L70334 67002
L70474 67002
L70559 67030
" />
<path d="M71065 67592
L71065 67283
L71037 67227
L70980 67199
L70868 67199
L70812 67227
" />
<path d="M71065 67564
L71009 67592
L70868 67592
L70812 67564
L70784 67508
L70784 67452
L70812 67395
L70868 67367
L71009 67367
L71065 67339
" />
<path d="M71346 67199
L71346 67592
" />
<path d="M71346 67255
L71374 67227
L71430 67199
L71515 67199
L71571 67227
L71599 67283
L71599 67592
" />
<path d="M72133 67592
L72133 67002
" />
<path d="M72133 67564
L72077 67592
L71965 67592
L71908 67564
L71880 67536
L71852 67480
L71852 67311
L71880 67255
L71908 67227
L71965 67199
L72077 67199
L72133 67227
" />
<path d="M72415 67592
L72415 67199
" />
<path d="M72415 67002
L72386 67030
L72415 67058
L72443 67030
L72415 67002
L72415 67058
" />
<path d="M72696 67199
L72696 67705
L72668 67761
L72611 67789
L72583 67789
" />
<path d="M72696 67002
L72668 67030
L72696 67058
L72724 67030
L72696 67002
L72696 67058
" />
<path d="M72949 67564
L73005 67592
L73118 67592
L73174 67564
L73202 67508
L73202 67480
L73174 67424
L73118 67395
L73033 67395
L72977 67367
L72949 67311
L72949 67283
L72977 67227
L73033 67199
L73118 67199
L73174 67227
" />
</g>
<g style="fill:#000000; fill-opacity:0.0; 
stroke:#000000; stroke-width:39.3701; stroke-opacity:1; 
stroke-linecap:round; stroke-linejoin:round;">
</g>
<g style="fill:#000000; fill-opacity:0.0; 
stroke:#000000; stroke-width:59.0551; stroke-opacity:1; 
stroke-linecap:round; stroke-linejoin:round;">
<path d="M77559 75396
L77559 76577
" />
</g>
<g style="fill:#000000; fill-opacity:0.0; 
stroke:#000000; stroke-width:39.3701; stroke-opacity:1; 
stroke-linecap:round; stroke-linejoin:round;">
</g>
<g style="fill:#000000; fill-opacity:0.0; 
stroke:#000000; stroke-width:59.0551; stroke-opacity:1; 
stroke-linecap:round; stroke-linejoin:round;">
<path d="M102756 75396
L102756 77955
" />
</g>
<g style="fill:#C2C200; fill-opacity:0.0; 
stroke:#C2C200; stroke-width:59.0551; stroke-opacity:1; 
stroke-linecap:round; stroke-linejoin:round;">
</g>
<g style="fill:#C2C200; fill-opacity:0.0; 
stroke:#C2C200; stroke-width:78.7402; stroke-opacity:1; 
stroke-linecap:round; stroke-linejoin:round;">
<path d="M68270 42485
L68250 35500
" />
<path d="M47250 35500
L47250 42500
" />
<path d="M61500 31250
L54000 31250
" />
<path d="M61500 46900
L54000 46900
" />
<path d="M61500 46900 A7400 7400 0.0 0 0 68270.4 42486.9 " />
<path d="M47250 42500 A7386.64 7386.64 0.0 0 0 54000 46886.6 " />
<path d="M54000 31250 A7500 7500 0.0 0 0 47242.5 35496.4 " />
<path d="M68250 35500 A7491.66 7491.66 0.0 0 0 61500 31258.3 " />
</g> 
</svg>
